<svg xmlns="http://www.w3.org/2000/svg" viewBox="250 250 500 500">
	<title>C#</title>
	<path style="fill:#9A4993;" d="M722.288,396.842c0-8.354-1.78-15.887-5.478-22.188c-3.561-6.3-8.903-11.504-16.024-15.613
		c-59.168-34.104-118.472-68.207-177.639-102.31c-16.025-9.177-31.364-8.903-47.252,0.411
		c-23.557,13.833-141.618,81.492-176.68,101.9c-14.518,8.354-21.503,21.229-21.503,37.938v205.99c0,8.218,1.78,15.477,5.204,21.777
		c3.561,6.437,9.04,11.916,16.299,16.161c35.199,20.407,153.123,87.929,176.68,101.9c15.887,9.311,31.364,9.722,47.252,0.411
		c59.168-34.24,118.472-68.207,177.639-102.31c7.396-4.246,12.737-9.587,16.298-16.161c3.424-6.301,5.204-13.559,5.204-21.777
		L722.288,396.842z"/>
	<path style="fill:#6A1577;" d="M500.548,499.153L282.642,624.609c3.561,6.437,9.04,11.916,16.299,16.162
		c35.199,20.407,153.123,87.929,176.68,101.899c15.887,9.314,31.364,9.725,47.252,0.411c59.167-34.24,118.472-68.207,177.639-102.31
		c7.396-4.246,12.737-9.587,16.298-16.162L500.548,499.153z"/>
	<path style="fill:#6A1577;" d="M436.039,536.269c12.738,22.188,36.569,37.117,63.824,37.117c27.529,0,51.497-15.066,64.098-37.528
		l-63.413-36.706L436.039,536.269z"/>
	<path style="fill:#813084;" d="M722.289,396.842c0-8.354-1.781-15.887-5.478-22.188L500.548,499.153L717.084,624.61
		c3.424-6.301,5.205-13.559,5.205-21.777V396.842z"/>
		<path style="fill:#FFFFFF;" d="M563.961,535.858c-12.6,22.325-36.568,37.528-64.098,37.528c-27.392,0-51.223-14.929-63.824-37.117
			c-6.163-10.82-9.725-23.146-9.725-36.432c0-40.678,32.871-73.548,73.548-73.548c27.118,0,50.813,14.792,63.55,36.706l64.235-36.98
			c-25.611-44.101-73.274-73.822-127.922-73.822c-81.629,0-147.644,66.152-147.644,147.644c0,26.707,7.122,51.909,19.585,73.548
			c25.475,44.238,73.411,74.096,128.196,74.096c54.922,0,102.859-29.994,128.333-74.507L563.961,535.858z M645.179,464.912h-14.655
			v70.809h14.655V464.912z M677.639,464.912h-14.655v70.809h14.655V464.912z"/>
		<path style="fill:#FFFFFF;" d="M689.555,476.828h-70.809v14.655h70.809V476.828z M689.555,509.151h-70.809v14.655h70.809V509.151z
			"/>
</svg>
