<svg fill="white" stroke="gray" version="1.1" viewBox="0 0 512 512" xmlns="http://www.w3.org/2000/svg">
	<g transform="matrix(.96 0 0 1.13 2.38 -48.7)">
		<path d="m53.6 143 33.9 0.947-44.2 247 221-21-0.453 37.7-259 8.93zm421 0-33.9 0.947 44.2 247-221-21 0.453 37.7 259 8.93z" fill="#0b8dc4" stroke-width="5.2"/>
		<path d="m266 365c-9.38 6.3-5.95 12-20.8 11.6-80.3-2.4-158 16.4-201 10.8l-1.36-25.8c99.3-19.5 188-32.3 223 3.34zm-3.29 0c9.38 6.3 5.95 12 20.8 11.6 80.3-2.4 158 16.4 201 10.8l1.36-25.8c-99.3-19.5-188-32.3-223 3.34z" stroke-width="10.4"/>
		<path d="m260 362c-88.9-48.8-164 13.9-218 0.677 9.28-26 40-192 45.4-219 53.2 4.73 79.6-52.6 171 3.31zm7.46 0c88.9-48.8 164 13.9 218 0.677-9.28-26-40-192-45.4-219-53.2 4.73-79.6-52.6-171 3.31z" stroke-width="10.4"/>
	</g>
</svg>
