<svg viewBox="0 0 777 754" xmlns="http://www.w3.org/2000/svg">
	<title>Kubernetes</title>
	<g transform="translate(-21.5 -179)">
		<g transform="matrix(1.06 0 0 1.06 -1.2 -9.94)">
			<path d="m387 179a48.9 48.5 0 0 0-18.8 4.75l-256 122a48.9 48.5 0 0 0-26.5 32.9l-63.1 275a48.9 48.5 0 0 0 6.64 37.2 48.9 48.5 0 0 0 2.78 3.86l177 220a48.9 48.5 0 0 0 38.3 18.3l284-0.0654a48.9 48.5 0 0 0 38.3-18.2l177-220a48.9 48.5 0 0 0 9.46-41.1l-63.2-275a48.9 48.5 0 0 0-26.5-32.9l-256-122a48.9 48.5 0 0 0-23.7-4.75z" fill="#326ce5"/>
			<path d="m389 272c-8.46 8.6e-4 -15.3 7.62-15.3 17 1e-5 0.144 0.0295 0.282 0.0327 0.425-0.0125 1.28-0.0741 2.82-0.0327 3.93 0.202 5.42 1.38 9.57 2.09 14.6 1.29 10.7 2.37 19.5 1.7 27.8-0.648 3.11-2.94 5.95-4.97 7.92l-0.36 6.48c-9.19 0.761-18.4 2.16-27.7 4.25-39.8 9.03-74 29.5-100 57.2-1.69-1.15-4.65-3.28-5.53-3.93-2.73 0.369-5.5 1.21-9.1-0.884-6.85-4.61-13.1-11-20.6-18.7-3.46-3.67-5.97-7.16-10.1-10.7-0.934-0.803-2.36-1.89-3.4-2.72-3.21-2.56-7.01-3.9-10.7-4.03-4.71-0.161-9.24 1.68-12.2 5.4-5.27 6.61-3.58 16.7 3.76 22.6 0.0746 0.0594 0.154 0.106 0.229 0.164 1.01 0.819 2.25 1.87 3.17 2.55 4.36 3.22 8.35 4.87 12.7 7.43 9.16 5.66 16.8 10.3 22.8 16 2.35 2.51 2.76 6.92 3.08 8.84l4.91 4.39c-26.3 39.5-38.4 88.4-31.3 138l-6.41 1.87c-1.69 2.18-4.08 5.62-6.58 6.64-7.88 2.48-16.7 3.39-27.5 4.52-5.03 0.418-9.36 0.169-14.7 1.18-1.17 0.222-2.81 0.648-4.09 0.949-0.0446 9e-3 -0.0863 0.0226-0.131 0.0327-0.07 0.0162-0.162 0.0502-0.229 0.0654-9.03 2.18-14.8 10.5-13 18.7 1.87 8.18 10.7 13.1 19.8 11.2 0.0656-0.015 0.161-0.0175 0.229-0.0327 0.103-0.0235 0.193-0.0732 0.295-0.0981 1.27-0.278 2.85-0.587 3.96-0.884 5.24-1.4 9.03-3.46 13.7-5.27 10.1-3.63 18.5-6.67 26.7-7.85 3.42-0.267 7.01 2.11 8.8 3.11l6.68-1.15c15.4 47.6 47.6 86.1 88.3 110l-2.78 6.68c1 2.59 2.11 6.1 1.36 8.66-2.97 7.71-8.06 15.8-13.9 24.9-2.81 4.19-5.68 7.44-8.21 12.2-0.606 1.15-1.38 2.91-1.96 4.12-3.94 8.42-1.05 18.1 6.51 21.8 7.61 3.66 17.1-0.2 21.1-8.64 6e-3 -0.0119 0.0269-0.0207 0.0327-0.0327 4e-3 -9e-3 -4e-3 -0.0236 0-0.0327 0.582-1.2 1.41-2.77 1.9-3.89 2.17-4.97 2.89-9.23 4.42-14 4.05-10.2 6.28-20.9 11.9-27.5 1.53-1.82 4.02-2.52 6.6-3.21l3.47-6.28c35.5 13.6 75.3 17.3 115 8.28 9.07-2.06 17.8-4.72 26.3-7.92 0.975 1.73 2.79 5.05 3.27 5.89 2.62 0.854 5.49 1.29 7.82 4.75 4.17 7.13 7.03 15.6 10.5 25.8 1.53 4.81 2.28 9.07 4.45 14 0.495 1.13 1.32 2.73 1.9 3.93 4.08 8.47 13.6 12.3 21.2 8.67 7.56-3.64 10.5-13.3 6.51-21.8-0.585-1.21-1.39-2.98-2-4.12-2.53-4.8-5.41-8.02-8.21-12.2-5.8-9.07-10.6-16.6-13.6-24.3-1.24-3.98 0.21-6.45 1.18-9.03-0.58-0.665-1.82-4.42-2.55-6.18 42.4-25 73.6-64.9 88.3-111 1.98 0.311 5.43 0.921 6.54 1.15 2.3-1.52 4.42-3.5 8.57-3.17 8.18 1.18 16.6 4.22 26.7 7.85 4.71 1.8 8.5 3.9 13.7 5.3 1.11 0.296 2.69 0.573 3.96 0.851 0.102 0.0249 0.192 0.0748 0.295 0.0981 0.0684 0.0153 0.164 0.0177 0.229 0.0327 9.08 1.96 17.9-3.01 19.8-11.2 1.86-8.18-3.93-16.5-13-18.7-1.31-0.299-3.18-0.806-4.45-1.05-5.33-1.01-9.67-0.76-14.7-1.18-10.7-1.12-19.6-2.03-27.5-4.52-3.21-1.25-5.5-5.07-6.61-6.64l-6.18-1.8c3.21-23.2 2.34-47.3-3.21-71.5-5.6-24.4-15.5-46.7-28.7-66.3 1.59-1.44 4.58-4.1 5.43-4.88 0.248-2.75 0.035-5.63 2.88-8.67 6.02-5.66 13.6-10.3 22.8-16 4.35-2.56 8.37-4.21 12.7-7.43 0.987-0.729 2.33-1.88 3.37-2.72 7.35-5.86 9.04-16 3.76-22.6-5.27-6.61-15.5-7.23-22.8-1.37-1.05 0.828-2.46 1.91-3.4 2.72-4.11 3.54-6.65 7.03-10.1 10.7-7.55 7.67-13.8 14.1-20.6 18.7-2.97 1.73-7.32 1.13-9.29 1.01l-5.83 4.16c-33.2-34.8-78.4-57.1-127-61.4-0.136-2.04-0.315-5.73-0.36-6.84-1.99-1.91-4.4-3.54-5.01-7.66-0.666-8.24 0.446-17.1 1.73-27.8 0.711-4.99 1.89-9.14 2.09-14.6 0.0459-1.23-0.0277-3.02-0.0327-4.35-1e-3 -9.4-6.86-17-15.3-17zm-19.2 119-4.55 80.3-0.327 0.164c-0.305 7.19-6.22 12.9-13.5 12.9-2.97 0-5.72-0.955-7.95-2.59l-0.131 0.0654-65.9-46.7c20.2-19.9 46.1-34.6 76-41.4 5.45-1.24 10.9-2.16 16.3-2.81zm38.4 0c34.8 4.29 67.1 20.1 91.8 44.2l-65.4 46.4-0.229-0.0981c-5.81 4.24-14 3.19-18.5-2.49-1.85-2.33-2.83-5.06-2.95-7.82l-0.0655-0.0327zm-155 74.2 60.1 53.8-0.0654 0.327c5.43 4.72 6.23 12.9 1.7 18.6-1.85 2.33-4.34 3.89-7 4.61l-0.0654 0.262-77.1 22.3c-3.92-35.9 4.53-70.8 22.4-99.8zm270 0.0327c8.94 14.5 15.7 30.7 19.7 48.2 3.98 17.3 4.98 34.6 3.34 51.3l-77.5-22.3-0.0654-0.327c-6.94-1.9-11.2-8.96-9.59-16 0.662-2.9 2.2-5.35 4.29-7.17l-0.0327-0.164 59.8-53.5zm-147 57.9h24.6l15.3 19.1-5.5 23.9-22.1 10.6-22.2-10.7-5.5-23.9zm79 65.5c1.05-0.0529 2.09 0.0415 3.11 0.229l0.131-0.164 79.8 13.5c-11.7 32.8-34 61.2-63.8 80.2l-31-74.8 0.0981-0.131c-2.84-6.61 2e-3 -14.4 6.54-17.5 1.68-0.807 3.43-1.25 5.17-1.34zm-134 0.327c6.09 0.0853 11.5 4.31 13 10.5 0.662 2.9 0.34 5.77-0.753 8.31l0.229 0.295-30.6 74c-28.6-18.4-51.4-45.9-63.6-79.7l79.1-13.4 0.131 0.164c0.884-0.163 1.78-0.241 2.65-0.229zm66.8 32.4c2.12-0.0779 4.27 0.357 6.32 1.34 2.68 1.29 4.75 3.32 6.05 5.76h0.295l39 70.4c-5.06 1.7-10.3 3.14-15.6 4.35-29.8 6.77-59.5 4.72-86.4-4.45l38.9-70.3h0.0654c2.33-4.36 6.76-6.96 11.4-7.13z" color="#000000" fill="#fff" style="text-decoration-line:none;text-indent:0;text-transform:none"/>
		</g>
	</g>
</svg>
